<?xml version="1.0" encoding="UTF-8"?><!DOCTYPE svg PUBLIC "-//W3C//DTD SVG 1.1//EN" "http://www.w3.org/Graphics/SVG/1.1/DTD/svg11.dtd"><svg xmlns="http://www.w3.org/2000/svg" xmlns:xlink="http://www.w3.org/1999/xlink" version="1.1" width="24" height="24" viewBox="0 0 24 24"><path id="default" d="M12 8L15 13.2L18 10.5L17.3 14H6.7L6 10.5L9 13.2L12 8M12 4L8.5 10L3 5L5 16H19L21 5L15.5 10L12 4M19 18H5V19C5 19.6 5.4 20 6 20H18C18.6 20 19 19.6 19 19V18Z" /><path id="hovered" d="M5 16L3 5L8.5 10L12 4L15.5 10L21 5L19 16H5M19 19C19 19.6 18.6 20 18 20H6C5.4 20 5 19.6 5 19V18H19V19Z" /></svg>
